<svg width="688" height="582" viewBox="0 0 688 582" fill="none" xmlns="http://www.w3.org/2000/svg">
<g clip-path="url(#clip0_2_365)">
<path d="M407.53 83.7312C407.086 82.9384 406.553 82.9648 404.959 83.8585C401.343 85.8863 400.098 88.5591 401.994 90.2261C403.115 91.2111 408.308 85.1182 407.53 83.7312ZM441.955 319.993C437.333 314.804 427.334 291.839 426.262 283.947C425.835 280.807 426.423 279.693 429.386 278.031C431.608 276.785 431.709 276.802 434.174 278.823C438.105 282.049 440.139 284.419 442.351 288.357C445.38 293.751 446.49 298.389 447.4 309.467C448.069 317.62 448.02 319.552 447.13 320.059C446.53 320.4 445.631 321.098 445.131 321.608C444.33 322.426 443.951 322.233 441.955 319.993ZM454.219 325.571C455.904 317.975 456.241 311.922 455.46 303.301C454.04 287.628 448.69 275.84 440.191 269.658C434.416 265.457 425.446 266.852 421.681 272.538C417.405 278.994 418.017 292.934 423.387 311.433C425.37 318.263 430.122 327.514 433.446 331.016C437.027 334.789 445.254 335.532 450.784 332.581C452.765 331.523 453.01 331.025 454.219 325.571ZM233.873 470.487L235.356 468.341L226.598 451.346C219.005 436.612 217.38 433.051 214.38 424.58C209.063 409.564 206.93 404.738 201.913 396.382C197.006 388.21 194.569 385.541 189.29 382.56C186.523 380.997 184.216 381.568 184.338 383.786C184.449 385.787 195.41 412.967 207.028 440.048C215.108 458.883 222.923 470.775 228.602 472.879C231.015 473.773 231.868 473.385 233.873 470.487ZM393.027 402.009C393.524 400.859 393.245 399.716 391.576 396.052C388.673 389.683 386.129 382.394 385.338 378.179C383.992 371.004 380.438 362.372 371.609 344.831C365.196 332.089 362.571 323.694 363.159 317.808C363.435 315.041 363.382 314.903 360.055 309.763L356.67 304.534L359.176 298.747C362.22 291.717 367.402 282.143 368.916 280.752C372.021 277.898 376.036 273.249 376.958 271.439C377.899 269.591 377.855 269.146 376.487 266.706C374.248 262.714 373.701 262.413 371.217 263.806C368.444 265.361 365.744 268.294 359.239 276.817C356.337 280.618 353.441 284.021 352.802 284.379C351.663 285.018 351.595 284.937 349.363 280.269C348.08 277.585 345.839 271.097 344.228 265.399C340.409 251.898 340.112 251.063 337.272 245.878C332.56 237.274 331.38 233.689 329.139 221.161C327.961 214.575 326.486 207.373 325.861 205.155C324.53 200.428 324.832 198.536 328.61 187.914C336.819 164.837 348.475 147.603 365.111 133.948C368.266 131.359 371.462 128.219 372.257 126.929C373.048 125.645 378.564 118.976 384.515 112.109C398.544 95.9187 399.723 94.239 398.76 91.8086C398.354 90.7833 397.89 90.0208 397.729 90.1141C396.986 90.5451 382.963 102.826 379.228 106.317C359.402 124.844 339.853 146.676 322.14 170.071C317.103 176.723 312.295 182.659 311.456 183.261L309.93 184.356L306.47 180.298C300.099 172.826 296.44 171.526 293.579 175.718C293.058 176.482 292.827 177.682 293.065 178.385C293.304 179.088 294.509 182.555 295.744 186.09C298.86 195.014 299.786 199.1 299.185 201.275C297.813 206.248 287.61 220.09 280.701 226.354C277.99 228.811 276.902 230.499 273.972 236.788C269.327 246.761 267.366 254.242 267.872 260.062C268.344 265.483 269.215 266.359 272.592 264.807C274.44 263.958 275.056 263.216 276.161 260.514C278.792 254.074 284.611 243.2 291.187 232.433L297.877 221.48L299.898 221.885C310.215 223.951 321.635 245.2 337.287 291.454C339.517 298.046 341.387 303.518 341.441 303.615C341.495 303.712 340.775 305.443 339.841 307.461C337.464 312.598 335.706 319.154 336.063 321.552C336.229 322.666 336.864 324.127 337.474 324.799C338.804 326.263 340.577 325.499 343.206 322.331C344.143 321.202 345.601 319.89 346.447 319.416L347.985 318.554L351.929 326.406C359.438 341.352 370.317 363.55 375.777 375.065C378.792 381.425 383.025 390.351 385.183 394.9C388.19 401.24 389.355 403.279 390.17 403.632C391.518 404.217 392.254 403.798 393.027 402.009ZM300.02 454.401C300.919 453.084 300.555 449.039 299.479 448.389C298.303 447.678 291.582 440.058 287.935 435.302C283.373 429.352 273.044 411.78 269.328 403.649C261.465 386.438 247.046 348.597 243.018 334.596C233.599 301.859 224.937 262.483 219.591 228.096C218.239 219.402 216.774 201.604 216.074 185.384C215.896 181.257 215.533 175.425 215.266 172.424C214.795 167.111 214.744 166.961 213.345 166.73C211.106 166.361 210.597 166.995 210.322 170.494C209.359 182.745 211.379 208.521 215.584 237.627C221.961 281.765 232.053 323.579 245.673 362.298C253.159 383.576 258.28 396.044 262.974 404.414C268.952 415.074 272.965 424.862 272.078 426.62C271.932 426.911 269.852 426.188 267.457 425.013C254.129 418.477 242.432 405.787 227.845 382.037C222.722 373.695 222.489 373.404 220.298 372.601C217.18 371.459 214.554 372.433 210.616 376.193C207.682 378.995 207.401 379.506 207.493 381.87C207.862 391.332 214.188 405.909 231.077 436.211C242.667 457.004 244.734 460.091 249.184 463.253C251.62 464.984 251.896 465.022 253.805 463.9C258.139 461.353 259.047 455.26 256.323 447.012C254.652 441.954 246.159 426.544 240.898 419.026C238.905 416.178 236.796 412.819 236.212 411.561C235.21 409.404 235.925 409.835 248.831 419.169C256.355 424.611 263.038 429.592 263.681 430.237C266.803 433.371 294.423 455.496 296.333 456.393C297.44 456.913 298.811 456.172 300.02 454.401ZM210.472 503.676L210.905 501.519L185.985 456.626C172.279 431.935 160.836 410.939 160.557 409.968C160.191 408.692 160.509 407.494 161.704 405.653C163.283 403.221 163.31 402.822 162.3 396.902C161.487 392.131 161.451 389.687 162.147 386.319C163.149 381.465 163.455 376.42 163.299 367.299C163.242 363.952 163.478 359.538 163.824 357.489C164.441 353.835 166.894 315.294 167.018 307.313C167.053 305.079 166.66 301.841 166.145 300.117C165.63 298.393 164.396 292.003 163.404 285.917L161.598 274.853L156.827 266.183C152.076 257.548 152.042 257.502 148.37 254.713C143.341 250.893 137.651 249.028 132.862 249.632C115.22 251.855 98.5204 265.636 83.0737 290.72C76.3108 301.703 73.1586 308.206 68.6444 320.49C60.9806 341.344 58.713 347.303 57.9552 348.579C57.5463 349.268 57.3414 351.221 57.4998 352.918C57.6582 354.616 56.9032 360.331 55.822 365.618C53.7222 375.886 53.6228 379.221 55.3091 382.825L56.3712 385.095L59.345 383.273C64.1245 380.345 66.6438 375.759 68.8337 366C70.3627 359.187 71.3671 356.528 75.0516 349.542C78.5525 342.904 79.8392 339.597 81.3798 333.274C84.6572 319.825 90.5654 306.48 99.4524 292.453C107.935 279.063 114.601 271.355 123.975 264.091C129.527 259.789 134.969 258.246 139.05 259.815C142.031 260.961 145.73 264.513 148.548 268.936C150.931 272.675 151.486 274.036 152.455 278.516C153.956 285.456 154.951 295.869 155.011 305.263C155.075 315.465 153.599 341.346 152.658 346.527C152.245 348.802 151.559 355.774 151.134 362.021C150.333 373.787 149.386 380.879 148.551 381.347C148.251 381.515 144.382 374.747 138.333 363.472C128.73 345.576 123.023 336.268 117.109 328.857L114.566 325.671L112.548 327.023L110.53 328.376L112.355 332.476C116.662 342.149 130.581 370.743 138.525 386.237C146.67 402.119 147.129 403.163 147.207 405.953C147.31 409.679 147.792 410.496 151.559 413.329L154.625 415.636L180.242 460.558C207.033 507.541 208.076 509.194 209.436 506.864C209.768 506.297 210.234 504.862 210.472 503.676ZM429.138 401.136L431.688 399.706L435.931 382.505C439.275 368.947 440.949 363.567 443.835 357.104L447.496 348.904L446.062 346.706L444.627 344.508L441.915 346.202C435.802 350.019 431.195 357.698 426.278 372.267C423.269 381.179 422.183 383.627 421.357 383.356C421.091 383.269 418.983 379.208 416.673 374.332C407.406 354.773 400.533 336.318 394.746 315.458C392.29 306.604 391.3 303.902 389.025 299.845C386.384 295.136 386.164 294.894 383.545 293.843C379.417 292.187 377.18 292.389 372.772 294.814C368.233 297.311 365.636 300.764 365.369 304.659C365.037 309.509 369.819 314.953 375.989 316.75C378.447 317.465 377.879 316.424 388.513 339.743C406.94 380.15 413.63 393.773 417.015 397.778C419.937 401.235 425.117 404.447 425.984 403.339C426.316 402.914 427.736 401.922 429.138 401.136ZM529.717 302.467C528.381 299.693 525.394 293.216 523.079 288.073C517.586 275.875 510.452 260.389 505.665 250.272C502.292 243.143 501.866 241.89 502.082 239.73C502.9 231.545 513.481 225.924 523.288 228.466L526.998 229.428L530.217 235.718C532.819 240.805 533.68 243.16 534.711 248.018C537.83 262.717 537.839 283.017 534.733 300.751C533.34 308.71 532.809 308.891 529.717 302.467ZM537.763 340.097C537.592 339.202 538.193 321.411 538.415 320.828C538.512 320.573 539.154 316.754 539.841 312.343C543.902 286.281 543.813 260.784 539.596 241.483C537.884 233.649 537.549 232.716 535.187 229.175C530.269 221.802 524.537 218.162 518.046 218.289C514.556 218.358 513.788 218.626 508.382 221.665C501.943 225.283 498.6 228.453 493.801 235.484L491.313 239.131L495.116 245.912C504.11 261.953 508.464 274.566 507.235 281.027C506.898 282.8 507.129 283.264 514.487 295.625C518.667 302.647 524.343 312.068 527.1 316.56L532.113 324.728L530.923 331.117C529.694 337.711 530.018 340.374 532.366 342.958C533.462 344.166 533.62 344.143 535.703 342.49C536.905 341.535 537.832 340.459 537.763 340.097ZM517.323 361.431C517.597 359.593 517.158 358.552 511.92 348.607C505.904 337.188 502.993 330.002 501.735 323.464C501.074 320.031 500.254 318.19 495.603 309.702C489.493 298.55 488.595 295.778 487.78 285.544C485.612 258.353 487.976 226.934 494.268 199.34C495.669 193.195 497.277 185.161 497.84 181.487C499.129 173.083 502.802 160.947 510.884 138.387C514.375 128.644 517.587 119.421 518.023 117.892C519.469 112.807 525.416 97.1231 528.724 89.6673C533.577 78.7272 538.111 71.8741 544.263 66.1784C545.31 65.2087 545.325 64.7793 544.371 63.0779C542.647 60.0028 541.299 59.3719 539.103 60.6123C534.315 63.3173 529.48 70.9686 524.082 84.3846C521.999 89.5622 519.006 96.8906 517.432 100.67C512.217 113.188 510.661 117.466 510.719 119.127C510.751 120.031 509.749 123.817 508.492 127.541C500.716 150.588 495.723 168.567 488.383 199.947C484.997 214.425 481.771 227.127 481.215 228.175C480.603 229.33 480.405 230.99 480.713 232.386C481.732 237 481.571 241.702 479.939 254.976C478.59 265.947 478.542 270.363 479.706 276.409C480.514 280.603 481.259 292.114 480.946 295.558C480.847 296.641 480.559 296.977 479.912 296.764C478.376 296.26 475.719 288.404 473.502 277.813L471.445 267.987L466.839 261.846C464.305 258.468 461.24 254.752 460.027 253.589C455.173 248.932 450.181 247.672 444.944 249.78C441.681 251.093 441.682 250.974 444.839 259.851C447.543 267.458 456.315 283.142 462.912 292.168C469.829 301.631 481.3 316.107 482.581 316.99C484.505 318.316 486.582 322.817 490.098 333.283C497.239 354.537 501.476 361.789 509.202 365.975L511.725 367.342L514.375 365.387C516.393 363.899 517.097 362.955 517.323 361.431ZM405.793 474.988C406.751 474.435 403.267 469.99 400.407 468.116C397.357 466.117 370.943 443.949 359.923 434.139C338.836 415.367 323.787 398.404 313.932 382.297L309.098 374.395L309.525 369.397C310.686 355.839 314.063 345.881 328.052 314.77C334.023 301.489 334.436 299.871 332.053 299.088C328.13 297.8 322.603 307.443 310.691 336.353C305.101 349.921 301.213 358.514 298.881 362.454L297.156 365.367L293.826 360.262C286.018 348.293 279.551 343.946 271.817 345.466C265.079 346.791 264.561 349.104 268.522 360.185C275.234 378.962 284.283 398.535 300.731 429.854C310.68 448.797 311.303 449.861 312.578 450.104C315.424 450.648 317.969 449.275 319.053 446.612C319.481 445.561 318.789 443.856 314.224 434.719C304.058 414.368 301.068 404.131 302.25 393.722C302.488 391.62 304.549 391.473 306.192 393.441C314.558 403.457 343.262 430.576 352.934 437.602C354.792 438.951 357.316 441.076 358.542 442.323C359.769 443.57 367.514 449.952 375.754 456.503C402.535 477.798 402.674 477.894 404.297 476.237C404.776 475.748 405.449 475.186 405.793 474.988Z" fill="url(#paint0_linear_2_365)" fill-opacity="0.9"/>
</g>
<defs>
<linearGradient id="paint0_linear_2_365" x1="254.683" y1="142.609" x2="432.874" y2="460.381" gradientUnits="userSpaceOnUse">
<stop stop-color="#CC102D"/>
<stop offset="0.302083" stop-color="#FFAD00"/>
<stop offset="0.5" stop-color="#FDFF00"/>
<stop offset="0.71875" stop-color="#1293C5"/>
<stop offset="0.848958" stop-color="#5C30BD"/>
<stop offset="0.953125" stop-color="#33CA00"/>
</linearGradient>
<clipPath id="clip0_2_365">
<rect width="583.146" height="364.323" fill="white" transform="translate(0.365112 285.218) rotate(-29.2816)"/>
</clipPath>
</defs>
</svg>
